<?xml version="1.0" encoding="utf-8"?>
<!-- Generator: Adobe Illustrator 15.0.0, SVG Export Plug-In . SVG Version: 6.00 Build 0)  -->
<!DOCTYPE svg PUBLIC "-//W3C//DTD SVG 1.1//EN" "http://www.w3.org/Graphics/SVG/1.1/DTD/svg11.dtd">
<svg version="1.1" id="Calque_1" xmlns="http://www.w3.org/2000/svg" xmlns:xlink="http://www.w3.org/1999/xlink" x="0px" y="0px"
	 width="80px" height="24px" viewBox="0 0 80 24" enable-background="new 0 0 80 24" xml:space="preserve">
<path fill="#EEEBE8" d="M3.036,0.534h73.928c1.399,0,2.536,1.137,2.536,2.535v17.932c0,1.396-1.136,2.533-2.536,2.533H3.036
	c-1.399,0-2.535-1.138-2.535-2.533V3.069C0.501,1.671,1.637,0.534,3.036,0.534L3.036,0.534z"/>
<path fill="#C0C0C0" d="M3.035,24.034C1.357,24.034,0,22.678,0,21V3.069c0-1.678,1.357-3.035,3.035-3.035h73.93
	C78.641,0.034,80,1.392,80,3.069V21c0,1.678-1.359,3.034-3.035,3.034H3.035 M3.035,23.034h73.93C78.087,23.034,79,22.122,79,21
	V3.069c0-1.122-0.913-2.035-2.035-2.035H3.035C1.913,1.034,1,1.947,1,3.069V21C1,22.122,1.913,23.034,3.035,23.034L3.035,23.034z"/>
<linearGradient id="SVGID_1_" gradientUnits="userSpaceOnUse" x1="41" y1="1.2056" x2="41" y2="21.0824" gradientTransform="matrix(-1 0 0 -1 81 30)">
	<stop  offset="0" style="stop-color:#FFFFFE;stop-opacity:0.5"/>
	<stop  offset="1" style="stop-color:#FFFFFE;stop-opacity:0"/>
</linearGradient>
<path fill="url(#SVGID_1_)" d="M79,12.068v7.931c0,2.506-0.844,3.035-3.115,3.035H4.115C1.526,23.034,1,22.2,1,19.999v-7.931"/>
<path fill="#24CFDE" d="M3.035,23.034C1.913,23.034,1,22.122,1,21V3.069c0-1.122,0.913-2.035,2.035-2.035h73.93
	C78.087,1.034,79,1.947,79,3.069V21c0,1.122-0.913,2.034-2.035,2.034H3.035 M3.035,24.034h73.93C78.641,24.034,80,22.678,80,21
	V3.069c0-1.678-1.359-3.035-3.035-3.035H3.035C1.357,0.034,0,1.392,0,3.069V21C0,22.678,1.357,24.034,3.035,24.034L3.035,24.034z"/>
<g id="Effet_NoPatch">
</g>
</svg>
