<?xml version="1.0" encoding="utf-8"?>
<!-- Generator: Adobe Illustrator 15.0.0, SVG Export Plug-In . SVG Version: 6.00 Build 0)  -->
<!DOCTYPE svg PUBLIC "-//W3C//DTD SVG 1.1//EN" "http://www.w3.org/Graphics/SVG/1.1/DTD/svg11.dtd">
<svg version="1.1" id="Calque_1" xmlns="http://www.w3.org/2000/svg" xmlns:xlink="http://www.w3.org/1999/xlink" x="0px" y="0px"
	 width="80px" height="24px" viewBox="0 0 80 24" enable-background="new 0 0 80 24" xml:space="preserve">
<path fill="#EEEBE8" d="M76.964,23.5H3.036c-1.399,0-2.536-1.137-2.536-2.535V3.033C0.5,1.637,1.636,0.5,3.036,0.5h73.928
	c1.399,0,2.535,1.137,2.535,2.533v17.932C79.499,22.363,78.363,23.5,76.964,23.5L76.964,23.5z"/>
<path fill="#C0C0C0" d="M76.965,0C78.643,0,80,1.357,80,3.034v17.931C80,22.643,78.643,24,76.965,24H3.035
	C1.359,24,0,22.643,0,20.965V3.034C0,1.357,1.359,0,3.035,0H76.965 M76.965,1H3.035C1.913,1,1,1.912,1,3.034v17.931
	C1,22.087,1.913,23,3.035,23h73.93C78.087,23,79,22.087,79,20.965V3.034C79,1.912,78.087,1,76.965,1L76.965,1z"/>
<linearGradient id="SVGID_1_" gradientUnits="userSpaceOnUse" x1="801.9199" y1="565.4395" x2="801.9199" y2="585.3154" gradientTransform="matrix(1 0 0 1 -761.9199 -570.1992)">
	<stop  offset="0" style="stop-color:#FFFFFE;stop-opacity:0.5"/>
	<stop  offset="1" style="stop-color:#FFFFFE;stop-opacity:0"/>
</linearGradient>
<path fill="url(#SVGID_1_)" d="M1,11.966V4.035C1,1.53,1.844,1,4.115,1h71.77C78.475,1,79,1.833,79,4.035v7.931"/>
<path fill="#24CFDE" d="M76.965,1C78.087,1,79,1.912,79,3.034v17.931C79,22.087,78.087,23,76.965,23H3.035
	C1.913,23,1,22.087,1,20.965V3.034C1,1.912,1.913,1,3.035,1H76.965 M76.965,0H3.035C1.359,0,0,1.357,0,3.034v17.931
	C0,22.643,1.359,24,3.035,24h73.93C78.643,24,80,22.643,80,20.965V3.034C80,1.357,78.643,0,76.965,0L76.965,0z"/>
<g id="Effet_NoPatch">
</g>
</svg>
