<?xml version="1.0" encoding="utf-8"?>
<!-- Generator: Adobe Illustrator 15.0.0, SVG Export Plug-In . SVG Version: 6.00 Build 0)  -->
<!DOCTYPE svg PUBLIC "-//W3C//DTD SVG 1.1//EN" "http://www.w3.org/Graphics/SVG/1.1/DTD/svg11.dtd">
<svg version="1.1" id="Calque_1" xmlns="http://www.w3.org/2000/svg" xmlns:xlink="http://www.w3.org/1999/xlink" x="0px" y="0px"
	 width="320px" height="24px" viewBox="0 0 320 24" enable-background="new 0 0 320 24" xml:space="preserve">
<g id="Effet_NoPatch" display="none">
</g>
<path fill="#EEEBE8" d="M76.964,23.467H3.036c-1.399,0-2.536-1.137-2.536-2.535V3c0-1.396,1.136-2.533,2.536-2.533h73.928
	c1.399,0,2.535,1.137,2.535,2.533v17.932C79.499,22.331,78.363,23.467,76.964,23.467L76.964,23.467z"/>
<path fill="#C0C0C0" d="M76.965-0.033C78.643-0.033,80,1.324,80,3.001v17.931c0,1.678-1.357,3.035-3.035,3.035H3.035
	C1.359,23.967,0,22.609,0,20.932V3.001c0-1.677,1.359-3.034,3.035-3.034H76.965 M76.965,0.967H3.035C1.913,0.967,1,1.879,1,3.001
	v17.931c0,1.123,0.913,2.035,2.035,2.035h73.93c1.122,0,2.035-0.912,2.035-2.035V3.001C79,1.879,78.087,0.967,76.965,0.967
	L76.965,0.967z"/>
<linearGradient id="SVGID_1_" gradientUnits="userSpaceOnUse" x1="801.9199" y1="565.4053" x2="801.9199" y2="585.283" gradientTransform="matrix(1 0 0 1 -761.9199 -570.1992)">
	<stop  offset="0.006" style="stop-color:#FFFFFE"/>
	<stop  offset="1" style="stop-color:#FFFFFE;stop-opacity:0"/>
</linearGradient>
<path fill="url(#SVGID_1_)" d="M1,11.933V4.002c0-2.505,0.844-3.035,3.115-3.035h71.77C78.474,0.967,79,1.801,79,4.002v7.931"/>
<path fill="#1DA9B6" d="M76.965,0.967C78.087,0.967,79,1.879,79,3.001v17.931c0,1.123-0.913,2.035-2.035,2.035H3.035
	C1.913,22.967,1,22.055,1,20.932V3.001c0-1.122,0.913-2.034,2.035-2.034H76.965 M76.965-0.033H3.035C1.359-0.033,0,1.324,0,3.001
	v17.931c0,1.678,1.359,3.035,3.035,3.035h73.93c1.678,0,3.035-1.357,3.035-3.035V3.001C80,1.324,78.643-0.033,76.965-0.033
	L76.965-0.033z"/>
<g id="Effet_NoPatch_1_">
</g>
<g>
	<path fill="#EEEBE8" d="M83.036,0.433h73.928c1.399,0,2.536,1.137,2.536,2.535V20.9c0,1.396-1.136,2.533-2.536,2.533H83.036
		c-1.399,0-2.535-1.139-2.535-2.533V2.968C80.5,1.57,81.636,0.433,83.036,0.433L83.036,0.433z"/>
	<path fill="#C0C0C0" d="M83.035,23.934c-1.678,0-3.035-1.357-3.035-3.035V2.968c0-1.678,1.357-3.035,3.035-3.035h73.93
		c1.676,0,3.035,1.357,3.035,3.035v17.931c0,1.679-1.359,3.035-3.035,3.035H83.035 M83.035,22.934h73.93
		c1.122,0,2.035-0.912,2.035-2.035V2.968c0-1.122-0.913-2.035-2.035-2.035h-73.93C81.913,0.933,81,1.846,81,2.968v17.931
		C81,22.021,81.913,22.934,83.035,22.934L83.035,22.934z"/>
	
		<linearGradient id="SVGID_2_" gradientUnits="userSpaceOnUse" x1="551" y1="7.2397" x2="551" y2="27.1156" gradientTransform="matrix(-1 0 0 -1 671 35.9336)">
		<stop  offset="0.006" style="stop-color:#FFFFFE"/>
		<stop  offset="1" style="stop-color:#FFFFFE;stop-opacity:0"/>
	</linearGradient>
	<path fill="url(#SVGID_2_)" d="M159,11.967v7.932c0,2.506-0.844,3.035-3.115,3.035h-71.77C81.526,22.934,81,22.1,81,19.898v-7.932"
		/>
	<path fill="#24CFDE" d="M83.035,22.934c-1.122,0-2.035-0.912-2.035-2.035V2.968c0-1.122,0.913-2.035,2.035-2.035h73.93
		c1.122,0,2.035,0.913,2.035,2.035v17.931c0,1.123-0.913,2.035-2.035,2.035H83.035 M83.035,23.934h73.93
		c1.676,0,3.035-1.356,3.035-3.035V2.968c0-1.678-1.359-3.035-3.035-3.035h-73.93C81.357-0.067,80,1.291,80,2.968v17.931
		C80,22.576,81.357,23.934,83.035,23.934L83.035,23.934z"/>
	<g id="Effet_NoPatch_2_">
	</g>
</g>
<g>
	<path fill="#EEEBE8" d="M163.036,0.534h73.928c1.399,0,2.536,1.137,2.536,2.535V21c0,1.396-1.137,2.533-2.536,2.533h-73.928
		c-1.399,0-2.535-1.137-2.535-2.533V3.069C160.501,1.671,161.637,0.534,163.036,0.534L163.036,0.534z"/>
	<path fill="#C0C0C0" d="M163.035,24.034c-1.678,0-3.035-1.356-3.035-3.033V3.069c0-1.678,1.357-3.035,3.035-3.035h73.93
		c1.676,0,3.035,1.357,3.035,3.035V21c0,1.678-1.359,3.033-3.035,3.033L163.035,24.034 M163.035,23.034h73.93
		c1.122,0,2.035-0.912,2.035-2.033V3.069c0-1.122-0.913-2.035-2.035-2.035h-73.93c-1.122,0-2.035,0.913-2.035,2.035V21
		C161,22.122,161.913,23.034,163.035,23.034L163.035,23.034z"/>
	
		<linearGradient id="SVGID_3_" gradientUnits="userSpaceOnUse" x1="359" y1="1.1401" x2="359" y2="21.016" gradientTransform="matrix(-1 0 0 -1 559 29.9336)">
		<stop  offset="0.006" style="stop-color:#FFFFFE"/>
		<stop  offset="1" style="stop-color:#FFFFFE;stop-opacity:0"/>
	</linearGradient>
	<path fill="url(#SVGID_3_)" d="M239,12.068v7.93c0,2.506-0.844,3.035-3.115,3.035h-71.77c-2.59,0-3.115-0.834-3.115-3.035v-7.93"/>
	<path fill="#24CFDE" d="M163.035,23.034c-1.122,0-2.035-0.912-2.035-2.033V3.069c0-1.122,0.913-2.035,2.035-2.035h73.93
		c1.122,0,2.035,0.913,2.035,2.035V21c0,1.121-0.913,2.033-2.035,2.033L163.035,23.034 M163.035,24.034h73.93
		c1.676,0,3.035-1.354,3.035-3.033V3.069c0-1.678-1.359-3.035-3.035-3.035h-73.93c-1.678,0-3.035,1.357-3.035,3.035V21
		C160,22.676,161.357,24.034,163.035,24.034L163.035,24.034z"/>
	<g id="Effet_NoPatch_3_">
	</g>
</g>
<g opacity="0.35">
	<path fill="#EEEBE8" d="M316.964,23.568h-73.928c-1.399,0-2.536-1.137-2.536-2.535V3.102c0-1.396,1.136-2.533,2.536-2.533h73.928
		c1.399,0,2.535,1.137,2.535,2.533v17.931C319.499,22.432,318.363,23.568,316.964,23.568L316.964,23.568z"/>
	<path fill="#C0C0C0" d="M316.965,0.068c1.678,0,3.035,1.357,3.035,3.034v17.93c0,1.678-1.357,3.034-3.035,3.034h-73.93
		c-1.676,0-3.035-1.356-3.035-3.034V3.103c0-1.677,1.359-3.034,3.035-3.034L316.965,0.068 M316.965,1.068h-73.93
		c-1.122,0-2.035,0.912-2.035,2.034v17.93c0,1.122,0.913,2.034,2.035,2.034h73.93c1.122,0,2.035-0.912,2.035-2.034V3.103
		C319,1.98,318.087,1.068,316.965,1.068L316.965,1.068z"/>
	
		<linearGradient id="SVGID_4_" gradientUnits="userSpaceOnUse" x1="1041.9199" y1="565.5078" x2="1041.9199" y2="585.3829" gradientTransform="matrix(1 0 0 1 -761.9199 -570.1992)">
		<stop  offset="0.006" style="stop-color:#FFFFFE"/>
		<stop  offset="1" style="stop-color:#FFFFFE;stop-opacity:0"/>
	</linearGradient>
	<path fill="url(#SVGID_4_)" d="M241,12.035V4.104c0-2.505,0.844-3.035,3.115-3.035h71.77c2.59,0,3.115,0.833,3.115,3.035v7.931"/>
	<path fill="#24CFDE" d="M316.965,1.068c1.122,0,2.035,0.912,2.035,2.034v17.93c0,1.122-0.913,2.034-2.035,2.034h-73.93
		c-1.122,0-2.035-0.912-2.035-2.034V3.103c0-1.122,0.913-2.034,2.035-2.034L316.965,1.068 M316.965,0.068h-73.93
		c-1.676,0-3.035,1.357-3.035,3.034v17.93c0,1.678,1.359,3.034,3.035,3.034h73.93c1.678,0,3.035-1.356,3.035-3.034V3.103
		C320,1.425,318.643,0.068,316.965,0.068L316.965,0.068z"/>
	<g id="Effet_NoPatch_4_">
	</g>
</g>
</svg>
